<?xml version="1.0" standalone="no"?>
<!DOCTYPE svg PUBLIC "-//W3C//DTD SVG 20010904//EN"
 "http://www.w3.org/TR/2001/REC-SVG-20010904/DTD/svg10.dtd">
<svg version="1.0" xmlns="http://www.w3.org/2000/svg"
 width="700.000000pt" height="700.000000pt" viewBox="0 0 700.000000 700.000000"
 preserveAspectRatio="xMidYMid meet">
<metadata>
Created by potrace 1.11, written by Peter Selinger 2001-2013
</metadata>
<g transform="translate(0.000000,700.000000) scale(0.100000,-0.100000)"
fill="#000000" stroke="none">
<path d="M3247 6944 c-1 -1 -31 -5 -67 -8 -36 -4 -81 -9 -100 -11 -19 -3 -56
-7 -81 -10 -25 -3 -54 -7 -65 -10 -10 -2 -67 -13 -126 -25 -125 -24 -348 -86
-463 -128 -100 -37 -229 -89 -252 -101 -10 -5 -73 -37 -141 -70 -520 -258
-979 -665 -1320 -1174 -50 -75 -92 -141 -92 -145 0 -4 -11 -24 -25 -44 -40
-60 -159 -304 -208 -428 -89 -227 -164 -488 -193 -670 -3 -19 -7 -42 -9 -50
-2 -8 -7 -37 -10 -65 -4 -27 -8 -61 -11 -75 -26 -151 -25 -630 1 -830 20 -150
59 -363 76 -407 7 -19 13 -21 31 -14 13 4 120 32 238 61 118 29 216 54 218 56
2 1 -6 46 -17 101 -24 118 -38 208 -46 288 -3 33 -8 76 -11 95 -6 38 -6 401 0
465 6 65 16 159 22 191 45 271 98 461 189 685 361 884 1141 1543 2075 1753 58
13 141 29 185 36 44 6 90 13 102 15 38 6 214 18 286 19 52 0 67 4 68 16 1 20
1 461 0 478 -1 11 -27 13 -127 10 -69 -1 -126 -4 -127 -4z"/>
<path d="M4248 6015 l-25 -84 81 -27 c168 -55 394 -164 557 -269 57 -37 106
-70 109 -74 3 -3 39 -31 80 -62 99 -74 321 -292 408 -402 173 -217 301 -440
397 -689 34 -87 93 -277 102 -328 2 -14 10 -52 18 -85 7 -33 16 -80 19 -105
20 -160 24 -203 26 -307 2 -60 5 -73 19 -74 77 -6 161 -2 162 6 7 92 -20 387
-46 498 -7 31 -14 61 -14 65 -15 122 -106 395 -201 596 -92 198 -253 444 -394
605 -41 47 -221 227 -271 272 -179 159 -478 346 -720 451 -62 27 -261 98 -274
98 -4 0 -19 -38 -33 -85z"/>
<path d="M2096 5826 c-58 -37 -269 -186 -276 -195 -3 -3 -36 -32 -75 -63 -92
-75 -261 -249 -357 -369 -244 -305 -428 -682 -517 -1059 -16 -69 -32 -143 -35
-165 -4 -22 -9 -53 -12 -70 -25 -140 -35 -430 -21 -605 13 -156 51 -387 65
-402 6 -6 159 26 167 34 1 2 -8 64 -20 138 -56 331 -53 582 11 945 15 84 72
283 111 385 191 499 535 929 976 1220 l125 82 -45 77 c-25 42 -46 76 -47 77 0
0 -23 -13 -50 -30z"/>
<path d="M3379 5736 c-2 -2 -42 -6 -89 -10 -321 -25 -653 -135 -947 -312 -459
-278 -817 -737 -971 -1249 -30 -98 -56 -206 -68 -280 -3 -21 -7 -46 -9 -56
-24 -125 -24 -484 0 -630 2 -13 6 -40 9 -59 31 -194 100 -407 197 -605 61
-125 177 -316 226 -370 10 -12 34 -41 53 -65 91 -117 278 -293 416 -392 105
-75 107 -76 131 -36 12 18 39 61 61 95 l41 61 -107 78 c-185 135 -390 356
-512 553 -137 221 -244 505 -276 736 -3 28 -9 59 -12 70 -9 36 -11 418 -2 470
4 28 11 70 14 95 10 75 63 280 95 365 95 256 242 492 425 685 64 66 145 141
196 180 25 19 47 37 50 40 34 36 248 166 355 215 485 222 1025 247 1520 68 95
-34 303 -131 335 -156 8 -7 31 -21 50 -32 73 -40 210 -147 311 -242 l36 -34
69 68 c105 104 102 94 47 146 -168 159 -361 290 -580 394 -182 87 -431 161
-625 188 -21 3 -55 7 -75 10 -44 7 -359 16 -364 11z"/>
<path d="M3378 5205 c-2 -2 -34 -6 -73 -10 -70 -7 -200 -31 -215 -40 -4 -2 1
-35 12 -72 10 -38 23 -89 29 -115 6 -27 16 -48 22 -48 7 0 48 7 92 16 98 20
355 23 470 5 168 -26 371 -98 520 -186 183 -107 368 -288 488 -477 68 -107
148 -287 163 -365 2 -12 8 -33 14 -47 18 -48 40 -208 43 -304 l1 -52 123 0
c91 0 123 3 124 13 3 44 -6 184 -16 237 -3 14 -7 41 -10 60 -11 65 -46 195
-72 265 -154 418 -451 749 -850 949 -137 68 -355 137 -483 151 -30 4 -58 9
-62 11 -9 6 -315 14 -320 9z"/>
<path d="M3360 4438 c-385 -57 -711 -383 -774 -773 -77 -486 223 -936 709
-1061 75 -20 288 -26 375 -11 284 48 543 245 679 514 33 66 75 199 85 273 7
51 9 237 2 248 -2 4 -7 30 -10 57 -10 74 -60 208 -108 293 -102 178 -274 329
-463 404 -144 58 -334 80 -495 56z"/>
<path d="M6595 4294 c-115 -30 -218 -55 -227 -56 -20 -3 -24 -38 -8 -84 13
-38 47 -240 55 -329 4 -38 9 -88 11 -110 6 -63 5 -356 -1 -416 -33 -312 -71
-502 -146 -722 -34 -101 -113 -295 -139 -342 -9 -16 -34 -64 -55 -105 -57
-108 -147 -249 -241 -375 -320 -428 -745 -756 -1242 -960 -97 -39 -221 -83
-257 -91 -5 -1 -41 -11 -80 -22 -74 -22 -180 -46 -255 -57 -24 -4 -47 -8 -50
-10 -3 -1 -39 -6 -80 -10 -41 -4 -78 -9 -81 -10 -3 -2 -68 -7 -145 -10 -76 -4
-145 -8 -151 -10 -10 -3 -13 -63 -13 -254 l0 -250 118 4 c132 5 267 16 362 30
78 12 224 39 280 52 36 8 74 17 85 19 29 6 161 44 240 70 345 113 688 293 993
521 80 60 90 68 182 148 125 108 294 280 370 374 19 24 40 48 45 55 6 6 26 31
45 56 19 25 37 47 40 50 14 12 123 174 184 273 201 326 367 746 435 1107 27
141 30 156 37 225 4 33 8 63 10 66 8 14 18 235 18 389 1 199 -12 384 -34 510
-5 30 -12 71 -15 90 -3 19 -15 81 -27 138 -16 78 -25 102 -37 101 -9 0 -110
-25 -226 -55z"/>
<path d="M5647 3734 c-1 -1 -36 -5 -77 -9 -41 -4 -77 -9 -79 -10 -2 -2 -4 -95
-6 -207 -3 -217 -17 -334 -61 -498 -13 -52 -26 -99 -27 -105 -2 -5 -5 -14 -8
-20 -4 -5 -14 -35 -24 -65 -10 -30 -38 -98 -63 -150 -229 -492 -663 -879
-1172 -1045 -125 -41 -120 -37 -105 -87 7 -24 21 -72 31 -108 10 -36 18 -66
19 -67 2 -4 189 56 207 67 10 5 23 10 29 10 19 0 240 109 329 162 71 43 172
111 215 145 270 214 487 476 629 760 108 215 181 439 212 650 3 26 8 57 10 68
16 83 23 425 10 480 -2 11 -5 23 -5 28 -1 6 -57 7 -64 1z"/>
<path d="M1824 3512 c-21 -3 -22 -8 -18 -75 4 -69 13 -156 19 -187 1 -8 5 -32
9 -52 9 -57 45 -186 73 -263 169 -464 538 -836 1002 -1011 122 -46 260 -78
425 -99 65 -8 267 -8 331 0 104 13 230 36 238 44 7 7 -38 206 -52 229 -4 6
-26 6 -69 -3 -34 -7 -88 -16 -119 -20 -67 -8 -287 -8 -323 0 -14 3 -45 8 -70
11 -123 16 -322 82 -447 149 -415 223 -695 627 -756 1089 -7 50 -12 112 -12
138 0 27 -2 48 -5 49 -13 3 -207 4 -226 1z"/>
<path d="M5175 1624 c-142 -128 -364 -278 -546 -370 -176 -88 -418 -174 -589
-208 -14 -3 -34 -7 -45 -9 -11 -3 -51 -10 -90 -16 -38 -6 -86 -13 -105 -17
-84 -14 -457 -14 -583 1 -313 37 -604 125 -879 267 -54 27 -102 47 -107 44
-11 -7 -81 -130 -81 -143 0 -9 112 -68 255 -133 135 -63 413 -152 545 -176 14
-2 61 -11 105 -19 138 -25 213 -30 445 -30 264 0 385 12 599 59 422 93 895
338 1206 625 l46 42 -33 37 c-63 69 -85 92 -89 92 -2 -1 -26 -21 -54 -46z"/>
</g>
</svg>
